<?xml version="1.0" encoding="utf-8"?>
<!-- Generator: Adobe Illustrator 24.0.2, SVG Export Plug-In . SVG Version: 6.00 Build 0)  -->
<svg version="1.1" id="Layer_1" xmlns="http://www.w3.org/2000/svg" xmlns:xlink="http://www.w3.org/1999/xlink" x="0px" y="0px"
	 viewBox="0 0 32 32" enable-background="new 0 0 32 32" xml:space="preserve">
<path d="M16,1C7.729,1,1,7.729,1,16c0,2.67188,0.71777,5.28809,2.08008,7.59766l-2.02881,6.08594
	c-0.11279,0.33838-0.03711,0.71094,0.19922,0.97803c0.22891,0.25871,0.5983,0.38887,0.9458,0.31885l7.32129-1.46436
	C11.56201,30.50098,13.74072,31,16,31c8.271,0,15-6.729,15-15S24.271,1,16,1z M16,29c-2.05712,0-4.03856-0.47851-5.89011-1.42235
	c-0.18221-0.09288-0.44115-0.13185-0.65041-0.08937l-5.96582,1.19336l1.63086-4.89209
	c0.09473-0.28516,0.05664-0.59766-0.104-0.85156C3.69873,20.85107,3,18.45166,3,16C3,8.83154,8.83154,3,16,3s13,5.83154,13,13
	S23.16846,29,16,29z"/>
<path d="M18,22h-1v-9c0-0.55225-0.44775-1-1-1h-2c-0.55225,0-1,0.44775-1,1s0.44775,1,1,1h1v9c0,0.55225,0.44775,1,1,1h2
	c0.55225,0,1-0.44775,1-1S18.55225,22,18,22z"/>
<circle cx="16" cy="9" r="1"/>
</svg>
