<svg id="Glyph" xmlns="http://www.w3.org/2000/svg" viewBox="0 0 64 64"><path d="M59.186,30.66449,32.88422,5.85175a1.29345,1.29345,0,0,0-1.77546.00018L4.8197,30.66449a2.5813,2.5813,0,0,0,1.77216,4.46265h4.73425V54.62036a3.88052,3.88052,0,0,0,3.88056,3.88049h8.2008A1.29348,1.29348,0,0,0,24.701,57.20734V46.39355A3.88053,3.88053,0,0,1,28.58154,42.513h6.84259a3.88054,3.88054,0,0,1,3.88056,3.88055V57.20734a1.29348,1.29348,0,0,0,1.29352,1.29351h8.18792a3.88052,3.88052,0,0,0,3.88056-3.88049V35.12714h4.74719A2.58392,2.58392,0,0,0,59.186,30.66449Z"/></svg>